<svg width="565" height="411" viewBox="0 0 565 411" fill="none" xmlns="http://www.w3.org/2000/svg"><g clip-path="url(#clip0_99_39521)"><path opacity="0.3" d="M345.431 241.802C342.441 241.802 319.35 235.509 320.014 232.151C323.578 214.125 358.268 204.03 374.994 204.03C377.478 204.03 379.903 204.327 382.241 204.891C388.463 184.009 405.656 169 425.893 169C448.583 169 467.448 187.868 471.31 212.729C477.817 207.258 485.835 204.03 494.508 204.03C510.165 204.03 523.689 214.552 530.043 229.793H555.215C558.093 229.793 560.427 232.481 560.427 235.797C560.427 239.113 558.093 241.802 555.215 241.802H345.431Z" fill="#DDF4FF"/><path opacity="0.5" d="M531.827 114.31C534.23 114.31 536.16 111.959 535.626 109.27C532.761 94.8321 521.508 84.057 508.062 84.057C506.065 84.057 504.117 84.2947 502.236 84.7468C497.236 68.0213 483.414 56 467.146 56C448.907 56 433.742 71.1126 430.638 91.0241C425.407 86.6427 418.961 84.057 411.99 84.057C399.403 84.057 388.532 92.4845 383.425 104.692H363.19C360.876 104.692 359 106.845 359 109.501C359 112.157 360.876 114.31 363.19 114.31H531.827Z" fill="#DDF4FF"/><path opacity="0.6" d="M259.748 100.167C263.671 100.167 266.82 96.3313 265.949 91.9418C261.273 68.3777 242.907 50.7917 220.962 50.7917C217.702 50.7917 214.522 51.1797 211.454 51.9176C203.292 24.6199 180.733 5 154.183 5C124.414 5 99.6638 29.6653 94.5974 62.1628C86.0597 55.0118 75.54 50.7917 64.1617 50.7917C43.6198 50.7917 25.8767 64.5463 17.5411 84.4694H8.83798C5.06148 84.4694 2 87.9835 2 92.3184C2 96.6532 5.06148 100.167 8.83798 100.167H259.748Z" fill="#DDF4FF"/><path d="M509.419 300.251C505.874 294.117 507.978 286.274 514.115 282.735C520.255 279.194 528.111 281.296 531.658 287.433L538.074 298.532L526.95 304.948C520.813 308.487 512.964 306.384 509.419 300.251Z" fill="#1AF0E3"/><path d="M556.488 273.106C552.943 266.973 545.091 264.871 538.955 268.41C532.814 271.952 530.709 279.799 534.256 285.936L540.671 297.035L551.795 290.62C557.932 287.081 560.033 279.239 556.488 273.106Z" fill="#1AF0E3"/><path d="M527.336 314.776C529.743 318.94 535.073 320.366 539.239 317.964C543.407 315.56 544.836 310.233 542.428 306.067L538.073 298.532L530.522 302.887C526.356 305.29 524.93 310.613 527.336 314.776Z" fill="#1AF0E3"/><path d="M560.122 295.868C562.529 300.032 561.1 305.356 556.934 307.758C552.766 310.162 547.433 308.735 545.025 304.569L540.67 297.035L548.222 292.68C552.388 290.277 557.716 291.705 560.122 295.868Z" fill="#1AF0E3"/><rect width="6.64499" height="28.3706" rx="3.32249" transform="matrix(0.866267 -0.499581 0.500419 0.865783 528.248 285.176)" fill="#5B3F30"/><path d="M40.134 249.106C43.6791 242.972 51.531 240.871 57.6678 244.41C63.8081 247.951 65.9134 255.798 62.3663 261.935L55.951 273.035L44.8268 266.619C38.69 263.08 36.589 255.239 40.134 249.106Z" fill="#CE82FF"/><path d="M87.2024 276.251C90.7475 270.117 88.6433 262.274 82.5065 258.735C76.3662 255.194 68.51 257.296 64.9629 263.433L58.5476 274.533L69.6717 280.948C75.8086 284.487 83.6573 282.384 87.2024 276.251Z" fill="#CE82FF"/><path d="M36.4983 271.868C34.0917 276.032 35.5201 281.356 39.686 283.759C43.8542 286.162 49.1873 284.735 51.5951 280.569L55.9501 273.035L48.3986 268.68C44.2327 266.277 38.9048 267.705 36.4983 271.868Z" fill="#CE82FF"/><path d="M69.2854 290.777C66.8788 294.94 61.5488 296.367 57.3829 293.964C53.2147 291.56 51.7855 286.233 54.1934 282.067L58.5483 274.533L66.0998 278.888C70.2656 281.29 71.6919 286.613 69.2854 290.777Z" fill="#CE82FF"/><rect width="6.64499" height="28.3706" rx="3.32249" transform="matrix(0.866267 0.499581 -0.500419 0.865783 62.6174 257.857)" fill="#5B3F30"/><path d="M467.93 117.847C466.312 110.95 470.596 104.052 477.494 102.44C484.397 100.828 491.308 105.115 492.927 112.015L495.855 124.497L483.35 127.417C476.452 129.029 469.548 124.744 467.93 117.847Z" fill="#FCA420"/><path d="M520.841 105.488C519.223 98.5914 512.316 94.3074 505.417 95.9187C498.515 97.5309 494.228 104.433 495.847 111.334L498.775 123.815L511.28 120.894C518.178 119.283 522.459 112.385 520.841 105.488Z" fill="#FCA420"/><path d="M480.875 136.937C481.973 141.619 486.662 144.527 491.345 143.433C496.031 142.339 498.941 137.653 497.842 132.969L495.854 124.496L487.366 126.479C482.683 127.573 479.777 132.255 480.875 136.937Z" fill="#FCA420"/><path d="M517.731 128.329C518.829 133.01 515.921 137.693 511.238 138.787C506.552 139.881 501.861 136.972 500.762 132.287L498.774 123.814L507.263 121.832C511.946 120.738 516.632 123.647 517.731 128.329Z" fill="#FCA420"/><rect width="6.64499" height="28.3706" rx="3.32249" transform="matrix(0.97379 -0.227449 0.228391 0.973569 490.316 108.868)" fill="#5B3F30"/><path d="M32.1619 116.64C38.5245 113.525 46.2142 116.159 49.3355 122.518C52.4585 128.881 49.831 136.57 43.4649 139.686L31.9508 145.324L26.293 133.796C23.1717 127.436 25.7993 119.756 32.1619 116.64Z" fill="#FF4C4C"/><path d="M56.1013 165.417C62.4639 162.302 65.0899 154.618 61.9686 148.259C58.8456 141.895 51.1516 139.261 44.7855 142.377L33.2714 148.015L38.9293 159.543C42.0505 165.902 49.7387 168.532 56.1013 165.417Z" fill="#FF4C4C"/><path d="M16.4524 133.51C12.1333 135.625 10.3506 140.841 12.4694 145.158C14.5894 149.477 19.8124 151.266 24.1339 149.15L31.95 145.323L28.1093 137.498C25.9905 133.181 20.7715 131.395 16.4524 133.51Z" fill="#FF4C4C"/><path d="M33.128 167.486C28.8089 169.6 23.5888 167.813 21.47 163.496C19.35 159.176 21.1336 153.957 25.4552 151.841L33.2713 148.015L37.112 155.84C39.2308 160.157 37.4471 165.371 33.128 167.486Z" fill="#FF4C4C"/><rect width="6.64499" height="28.3706" rx="3.32249" transform="matrix(0.440593 0.897707 -0.898133 0.439725 45.9464 136.44)" fill="#5B3F30"/><rect opacity="0.6" x="92.6349" y="351.288" width="387.936" height="43.4895" rx="21.7447" fill="#58A700"/><rect x="405.46" y="387.312" width="5.78286" height="18.4561" rx="2.89143" fill="#58CC02"/><rect x="414.443" y="393" width="5.78286" height="18.4561" rx="2.89143" fill="#58CC02"/><rect x="440.197" y="386" width="5.78286" height="18.4561" rx="2.89143" fill="#58CC02"/><rect opacity="0.6" x="37.3145" y="366" width="5.78286" height="18.4561" rx="2.89143" fill="#58A700"/><rect opacity="0.6" x="550.254" y="374.415" width="5.78286" height="18.4561" rx="2.89143" fill="#58A700"/><rect opacity="0.6" x="559.236" y="371" width="5.78286" height="18.4561" rx="2.89143" fill="#58A700"/><path opacity="0.6" d="M46.7959 351.865C46.7959 350.268 48.0904 348.973 49.6873 348.973C51.2842 348.973 52.5788 350.268 52.5788 351.865V374.184C52.5788 375.781 51.2842 377.076 49.6873 377.076C48.0904 377.076 46.7959 375.781 46.7959 374.184V351.865Z" fill="#58A700"/><rect opacity="0.6" x="505.582" y="337.607" width="5.78286" height="18.4561" rx="2.89143" fill="#58A700"/><rect opacity="0.6" x="493.812" y="342.605" width="5.78286" height="18.4561" rx="2.89143" fill="#58A700"/><rect x="165.468" y="388.021" width="5.78286" height="18.4561" rx="2.89143" fill="#58CC02"/><rect x="156.484" y="381.871" width="5.78286" height="18.4561" rx="2.89143" fill="#58CC02"/><rect x="123.021" y="316.041" width="5.78286" height="18.4561" rx="2.89143" fill="#58CC02"/><rect x="113.66" y="318.334" width="5.78286" height="18.4561" rx="2.89143" fill="#58CC02"/><path fill-rule="evenodd" clip-rule="evenodd" d="M240.409 272.548L241.524 279.894C241.709 281.112 242.845 281.949 244.063 281.764C245.28 281.579 246.117 280.442 245.932 279.225L244.817 271.878C244.632 270.661 243.495 269.824 242.278 270.009C241.061 270.194 240.224 271.331 240.409 272.548Z" fill="#FFC3B3"/><path fill-rule="evenodd" clip-rule="evenodd" d="M280.232 200.691C277.6 199.171 274.235 200.073 272.715 202.705L230.76 275.374C229.24 278.006 230.142 281.371 232.774 282.89C235.405 284.41 238.77 283.508 240.29 280.876L282.246 208.207C283.765 205.575 282.863 202.21 280.232 200.691Z" fill="#FF2D38"/><path d="M235.43 267.284L230.759 275.374C229.24 278.005 230.141 281.371 232.773 282.89C235.405 284.41 238.77 283.508 240.29 280.876L244.96 272.787L235.43 267.284Z" fill="#FFC3B3"/><path fill-rule="evenodd" clip-rule="evenodd" d="M282.954 232.044C289.032 232.044 293.959 236.971 293.959 243.049L293.959 358.378C293.959 364.456 289.032 369.383 282.954 369.383C276.877 369.383 271.95 364.456 271.95 358.378L271.95 243.049C271.95 236.971 276.877 232.044 282.954 232.044Z" fill="#FFC3B3"/><path fill-rule="evenodd" clip-rule="evenodd" d="M325.199 272.548L324.083 279.894C323.898 281.112 322.762 281.949 321.544 281.764C320.327 281.579 319.49 280.442 319.675 279.225L320.79 271.878C320.975 270.661 322.112 269.824 323.329 270.009C324.546 270.194 325.383 271.331 325.199 272.548Z" fill="#FFC3B3"/><path fill-rule="evenodd" clip-rule="evenodd" d="M285.376 200.691C288.007 199.171 291.373 200.073 292.892 202.705L334.848 275.374C336.367 278.006 335.465 281.371 332.834 282.89C330.202 284.41 326.837 283.508 325.317 280.876L283.362 208.207C281.842 205.575 282.744 202.21 285.376 200.691Z" fill="#FF2D38"/><path fill-rule="evenodd" clip-rule="evenodd" d="M282.955 196.309C289.032 196.309 293.959 201.236 293.959 207.314L293.959 266.263L271.95 266.263L271.95 207.314C271.95 201.236 276.877 196.309 282.955 196.309Z" fill="#FF2D38"/><path fill-rule="evenodd" clip-rule="evenodd" d="M282.954 200.636C283.586 200.636 284.099 201.149 284.099 201.781L284.099 260.702L281.809 260.702L281.809 201.781C281.809 201.149 282.322 200.636 282.954 200.636Z" fill="#D8D8D8"/><path fill-rule="evenodd" clip-rule="evenodd" d="M281.809 330.285L281.809 273.943L284.099 273.943L284.099 330.285L281.809 330.285Z" fill="#EE9583"/><path fill-rule="evenodd" clip-rule="evenodd" d="M271.95 281.349L271.95 246.326L293.959 246.326L293.959 281.349L271.95 281.349Z" fill="#EA0000"/><path d="M293.959 330.296V358.378C293.959 364.456 289.032 369.383 282.954 369.383C276.877 369.383 271.95 364.456 271.95 358.378L271.95 330.296H293.959Z" fill="#D8D8D8"/><path fill-rule="evenodd" clip-rule="evenodd" d="M281.809 281.349L281.809 266.205L284.099 266.205L284.099 281.349L281.809 281.349Z" fill="#C00000"/><path fill-rule="evenodd" clip-rule="evenodd" d="M287.538 266.263C287.538 266.895 287.025 267.407 286.393 267.407L279.515 267.407C278.883 267.407 278.37 266.895 278.37 266.263C278.37 265.63 278.883 265.118 279.515 265.118L286.393 265.118C287.025 265.118 287.538 265.63 287.538 266.263Z" fill="#C00000"/><path fill-rule="evenodd" clip-rule="evenodd" d="M281.809 369.346L281.809 330.285L284.099 330.285L284.099 369.346L281.809 369.346Z" fill="#C5C5C5"/><path fill-rule="evenodd" clip-rule="evenodd" d="M264.212 377.339C264.212 374.806 266.265 372.753 268.797 372.753L297.111 372.753C299.644 372.753 301.697 374.806 301.697 377.339C301.697 379.871 299.644 381.924 297.111 381.924L268.797 381.924C266.265 381.924 264.212 379.871 264.212 377.339Z" fill="#FF2D38"/><path d="M330.176 267.284L334.847 275.374C336.366 278.005 335.464 281.371 332.833 282.89C330.201 284.41 326.836 283.508 325.316 280.876L320.646 272.787L330.176 267.284Z" fill="#FFC3B3"/><path d="M321.817 92.4667C317.606 92.3131 313.627 93.3447 310.201 95.2626C308.828 95.9592 307.265 96.3273 305.617 96.2672C302.077 96.1381 299.067 94.0654 297.574 91.1129C292.07 79.5031 280.444 71.2859 266.716 70.7852C247.087 70.0693 230.595 85.4012 229.879 105.03C229.163 124.659 244.495 141.151 264.124 141.867L320.202 136.759C332.433 137.205 342.709 127.651 343.155 115.42C343.602 103.189 334.048 92.9127 321.817 92.4667Z" fill="#FFAE00"/><path fill-rule="evenodd" clip-rule="evenodd" d="M357.068 179.268C357.433 179.754 357.56 180.379 357.412 180.969C354.44 192.844 343.419 201.421 330.628 200.954C317.836 200.488 307.469 191.131 305.37 179.071C305.266 178.472 305.438 177.858 305.837 177.4C306.237 176.942 306.822 176.689 307.429 176.711L355.53 178.465C356.138 178.487 356.703 178.782 357.068 179.268Z" fill="#FFAE00"/><path fill-rule="evenodd" clip-rule="evenodd" d="M267.383 174.755C267.749 175.241 267.875 175.866 267.727 176.456C264.756 188.331 253.735 196.908 240.943 196.441C228.151 195.975 217.784 186.618 215.686 174.558C215.581 173.959 215.753 173.345 216.153 172.887C216.552 172.429 217.137 172.176 217.745 172.198L265.845 173.952C266.453 173.974 267.018 174.269 267.383 174.755Z" fill="#FFAE00"/><path fill-rule="evenodd" clip-rule="evenodd" d="M232.483 129.419L340.713 133.366L338.733 187.66L230.503 183.713L232.483 129.419Z" fill="#FFAE00"/><path fill-rule="evenodd" clip-rule="evenodd" d="M241.119 125.291L332.204 128.613L330.015 188.622C329.634 199.077 320.849 207.244 310.393 206.863L257.171 204.922C246.716 204.54 238.549 195.755 238.93 185.3L241.119 125.291Z" fill="#FFC3B3"/><path d="M244.006 162.4C243.794 168.219 238.904 172.765 233.085 172.553C227.265 172.34 222.719 167.451 222.932 161.631C223.144 155.812 228.034 151.266 233.853 151.478C239.673 151.69 244.218 156.58 244.006 162.4Z" fill="#FFC3B3"/><path d="M348.306 166.203C348.094 172.023 343.205 176.569 337.385 176.356C331.565 176.144 327.02 171.254 327.232 165.435C327.444 159.615 332.334 155.07 338.154 155.282C343.973 155.494 348.519 160.384 348.306 166.203Z" fill="#FFC3B3"/><path fill-rule="evenodd" clip-rule="evenodd" d="M268.619 140.861C276.281 141.141 282.266 147.579 281.987 155.241L281.823 159.741C281.543 167.404 275.105 173.389 267.442 173.109C259.78 172.83 253.795 166.392 254.074 158.729L254.239 154.229C254.518 146.567 260.956 140.582 268.619 140.861Z" fill="white"/><path fill-rule="evenodd" clip-rule="evenodd" d="M304.678 142.176C297.015 141.897 290.577 147.882 290.298 155.545L290.133 160.044C289.854 167.707 295.839 174.145 303.501 174.424C311.164 174.704 317.602 168.719 317.882 161.056L318.046 156.557C318.325 148.894 312.34 142.456 304.678 142.176Z" fill="white"/><path fill-rule="evenodd" clip-rule="evenodd" d="M232.716 120.335L340.947 124.283L340.465 137.499L232.234 133.552L232.716 120.335Z" fill="#FF2D38"/><path fill-rule="evenodd" clip-rule="evenodd" d="M285.026 176.706C287.59 176.799 289.745 174.805 289.838 172.252C289.86 171.654 289.634 170.856 289.276 169.985L289.175 169.745L289.068 169.503C289.049 169.462 289.031 169.421 289.012 169.38L288.897 169.134L288.777 168.887C288.757 168.845 288.736 168.804 288.716 168.762L288.589 168.513L288.46 168.264L288.327 168.015L288.192 167.766L288.055 167.52L287.917 167.275L287.778 167.033L287.568 166.676L287.29 166.215L287.019 165.774L286.756 165.358L286.449 164.882L286.171 164.46L285.738 163.82L285.508 163.49L285.254 163.802L284.94 164.198L284.532 164.725L284.266 165.075L283.982 165.457L283.684 165.865L283.531 166.078L283.221 166.518L283.064 166.744L282.829 167.09L282.674 167.323L282.519 167.56L282.366 167.797L282.216 168.036L282.068 168.275L281.924 168.515L281.785 168.753C281.762 168.793 281.739 168.833 281.716 168.873L281.584 169.11C281.562 169.149 281.54 169.188 281.519 169.227L281.395 169.462L281.277 169.693C280.856 170.536 280.573 171.315 280.551 171.913C280.458 174.467 282.461 176.612 285.026 176.706Z" fill="#EE9583"/><path d="M278.258 157.133C280.806 158.918 280.179 162.859 278.296 165.697C276.054 169.078 272.897 171.127 269.524 171.371C266.127 171.616 263.603 170.296 262.832 168.122C262.117 166.106 262.797 163.065 267.018 160.832L268.187 160.168C268.782 159.87 269.335 159.496 269.832 159.055L271.084 158.025C273.456 156.314 276.034 155.575 278.258 157.133Z" fill="#3D3D3D"/><path d="M293.722 157.697C291.051 159.291 291.388 163.267 293.059 166.235C295.05 169.77 298.049 172.044 301.395 172.533C304.766 173.025 307.378 171.893 308.306 169.781C309.166 167.821 308.71 164.739 304.662 162.205L303.544 161.457C302.973 161.117 302.449 160.704 301.985 160.228L300.812 159.109C298.571 157.23 296.054 156.305 293.722 157.697Z" fill="#3D3D3D"/><circle cx="271.272" cy="157.232" r="3.80152" transform="rotate(76.8753 271.272 157.232)" fill="white"/><circle r="3.80152" transform="matrix(-0.297408 0.95475 0.95475 0.297408 300.681 158.304)" fill="white"/><ellipse cx="303.676" cy="184.97" rx="21.7323" ry="14.2646" transform="rotate(-7.28973 303.676 184.97)" fill="#FFC3B3"/><path d="M308.208 179.92C305.038 176.101 299.398 175.527 295.538 178.6L295.413 178.702C293.016 180.68 291.033 181.169 288.581 180.529L288.43 180.489C283.592 179.147 278.589 181.969 277.255 186.791C275.921 191.613 278.762 196.611 283.6 197.952C291.978 200.276 300.096 198.391 307.017 192.679C310.879 189.492 311.412 183.779 308.208 179.92Z" fill="white"/><path d="M306.875 192.795C306.036 190.261 304.935 187.821 303.59 185.515L302.86 184.265C302.526 183.692 301.791 183.499 301.219 183.833C300.647 184.167 300.453 184.901 300.787 185.474L301.517 186.724C302.88 189.061 303.976 191.545 304.783 194.127L304.843 194.32C305.531 193.847 306.209 193.339 306.875 192.795Z" fill="#EBE3E3"/><path d="M296.932 198.058L294.505 188.216C294.347 187.572 293.696 187.179 293.053 187.338C292.409 187.497 292.016 188.147 292.175 188.79L294.589 198.581C295.377 198.446 296.159 198.272 296.932 198.058Z" fill="#EBE3E3"/><path d="M286.287 198.556L286.238 198.267C285.785 195.6 285.635 192.89 285.789 190.189L285.872 188.743C285.91 188.082 285.404 187.515 284.742 187.477C284.081 187.439 283.514 187.945 283.476 188.606L283.393 190.052C283.241 192.707 283.366 195.369 283.764 197.997C284.608 198.226 285.449 198.412 286.287 198.556Z" fill="#EBE3E3"/><path d="M368.894 238.355L380.177 244.566C383.328 246.301 387.289 245.153 389.024 242.001C390.759 238.85 389.611 234.889 386.459 233.154L375.176 226.943L368.894 238.355Z" fill="#E18E70"/><path fill-rule="evenodd" clip-rule="evenodd" d="M355.565 223.578C357.3 220.427 361.261 219.278 364.413 221.013L378.938 229.009L372.656 240.422L358.13 232.426C354.979 230.691 353.83 226.73 355.565 223.578Z" fill="#1CB0F6"/><path fill-rule="evenodd" clip-rule="evenodd" d="M387.616 237.602C389.075 238.077 389.872 239.645 389.397 241.103L386.788 249.113C386.313 250.571 384.745 251.369 383.287 250.894C381.828 250.418 381.031 248.851 381.506 247.392L384.115 239.383C384.59 237.924 386.158 237.127 387.616 237.602Z" fill="#E18E70"/><path fill-rule="evenodd" clip-rule="evenodd" d="M384.689 237.733C385.93 238.634 386.206 240.371 385.306 241.612L380.54 248.181C379.639 249.422 377.902 249.699 376.66 248.798C375.419 247.897 375.142 246.16 376.043 244.918L380.809 238.35C381.71 237.108 383.447 236.832 384.689 237.733Z" fill="#E18E70"/><path fill-rule="evenodd" clip-rule="evenodd" d="M386.115 235.057C386.941 236.35 386.561 238.068 385.268 238.893L375.487 245.136C374.194 245.961 372.477 245.582 371.651 244.289C370.826 242.996 371.205 241.278 372.498 240.453L382.28 234.21C383.573 233.385 385.29 233.764 386.115 235.057Z" fill="#E18E70"/><path fill-rule="evenodd" clip-rule="evenodd" d="M396.324 257.601C393.899 257.601 391.932 259.568 391.932 261.994V287.439C391.932 289.865 393.899 291.832 396.324 291.832C398.75 291.832 400.717 289.865 400.717 287.439V261.994C400.717 259.568 398.75 257.601 396.324 257.601Z" fill="#FFAADE"/><path fill-rule="evenodd" clip-rule="evenodd" d="M402.49 257.601C400.064 257.601 398.097 259.568 398.097 261.994V287.439C398.097 289.865 400.064 291.832 402.49 291.832C404.915 291.832 406.882 289.865 406.882 287.439V261.994C406.882 259.568 404.915 257.601 402.49 257.601Z" fill="#FFAADE"/><path fill-rule="evenodd" clip-rule="evenodd" d="M396.324 232.642C393.899 232.642 391.932 234.609 391.932 237.034V262.48C391.932 264.906 393.899 266.872 396.324 266.872C398.75 266.872 400.717 264.906 400.717 262.48V237.034C400.717 234.609 398.75 232.642 396.324 232.642Z" fill="#FFAADE"/><path fill-rule="evenodd" clip-rule="evenodd" d="M402.49 232.642C400.064 232.642 398.097 234.609 398.097 237.034V262.48C398.097 264.906 400.064 266.872 402.49 266.872C404.915 266.872 406.882 264.906 406.882 262.48V237.034C406.882 234.609 404.915 232.642 402.49 232.642Z" fill="#FFAADE"/><path d="M380.357 172.329L369.624 241.898C369.263 244.243 371.256 246.276 373.607 245.962L408.395 241.307C410.789 240.987 412.173 238.421 411.125 236.244L380.357 172.329Z" fill="#1CB0F6"/><path fill-rule="evenodd" clip-rule="evenodd" d="M380.403 299.007C380.403 296.43 382.492 294.341 385.069 294.341L399.476 294.341C402.053 294.341 404.142 296.43 404.142 299.007C404.142 301.584 402.053 303.673 399.476 303.673L385.069 303.673C382.492 303.673 380.403 301.584 380.403 299.007Z" fill="#FF86D0"/><path fill-rule="evenodd" clip-rule="evenodd" d="M386.567 299.007C386.567 296.43 388.656 294.341 391.233 294.341L405.64 294.341C408.217 294.341 410.306 296.43 410.306 299.007C410.306 301.584 408.217 303.673 405.64 303.673L391.233 303.673C388.656 303.673 386.567 301.584 386.567 299.007Z" fill="#FF86D0"/><path d="M428.645 225.892L420.676 236.01C418.45 238.836 414.355 239.323 411.529 237.097C408.702 234.872 408.216 230.776 410.442 227.95L418.41 217.831L428.645 225.892Z" fill="#E18E70"/><path fill-rule="evenodd" clip-rule="evenodd" d="M411.108 232.498C409.95 233.504 409.827 235.259 410.833 236.417L416.358 242.775C417.365 243.933 419.119 244.056 420.277 243.05C421.435 242.044 421.558 240.289 420.552 239.131L415.027 232.773C414.02 231.615 412.266 231.492 411.108 232.498Z" fill="#E18E70"/><path fill-rule="evenodd" clip-rule="evenodd" d="M413.855 231.477C413.063 232.79 413.486 234.497 414.799 235.29L421.749 239.48C423.062 240.272 424.77 239.85 425.562 238.536C426.354 237.222 425.931 235.515 424.617 234.723L417.668 230.532C416.354 229.74 414.647 230.163 413.855 231.477Z" fill="#E18E70"/><path fill-rule="evenodd" clip-rule="evenodd" d="M411.498 229.569C411.242 231.081 412.261 232.515 413.773 232.771L425.215 234.706C426.727 234.962 428.161 233.943 428.416 232.431C428.672 230.918 427.654 229.485 426.141 229.229L414.7 227.293C413.187 227.038 411.754 228.056 411.498 229.569Z" fill="#E18E70"/><path fill-rule="evenodd" clip-rule="evenodd" d="M371.971 86.2425L414.937 75.8776C419.961 74.6657 425.017 77.756 426.229 82.7801C427.441 87.8043 424.35 92.8596 419.326 94.0716L376.36 104.436C371.336 105.648 366.28 102.558 365.069 97.5339C363.857 92.5098 366.947 87.4544 371.971 86.2425Z" fill="#1CB0F6"/><circle cx="386.567" cy="146.766" r="62.2589" transform="rotate(-13.5625 386.567 146.766)" fill="#1CB0F6"/><path d="M424.426 136.973C432.025 161.68 418.156 187.869 393.449 195.468C368.742 203.066 342.554 189.198 334.955 164.491C327.356 139.784 341.225 113.596 365.932 105.997C390.638 98.398 416.827 112.267 424.426 136.973Z" fill="#E18E70"/><path fill-rule="evenodd" clip-rule="evenodd" d="M354.007 132.107C361.713 132.245 367.842 138.873 367.697 146.91L367.612 151.63C367.467 159.666 361.103 166.069 353.398 165.93C345.692 165.791 339.563 159.164 339.708 151.127L339.793 146.407C339.937 138.37 346.301 131.968 354.007 132.107Z" fill="white"/><path fill-rule="evenodd" clip-rule="evenodd" d="M387.006 132.7C378.969 132.555 372.336 138.953 372.192 146.99L372.107 151.709C371.962 159.746 378.359 166.379 386.396 166.523C394.433 166.668 401.066 160.27 401.211 152.234L401.296 147.514C401.44 139.477 395.043 132.845 387.006 132.7Z" fill="white"/><path d="M367.1 131.028C380.888 125.203 390.53 115.081 392.368 105.718C387.704 104.37 382.749 103.729 377.633 103.918C366.459 104.33 356.345 108.626 348.541 115.46C345.659 117.839 342.148 119.292 338.321 119.434C334.488 119.575 330.875 118.38 327.822 116.213C326.687 115.408 325.012 115.845 324.81 117.222C324.413 119.923 324.682 122.548 325.706 124.973C327.418 129.024 331 131.954 335.749 133.658C343.933 136.595 355.583 135.894 367.1 131.028Z" fill="#3D3D3D"/><path fill-rule="evenodd" clip-rule="evenodd" d="M363.181 166.776C361.157 165.734 360.403 163.168 361.497 161.044C361.748 160.555 362.272 160.013 362.93 159.468L363.131 159.305C363.199 159.25 363.269 159.196 363.339 159.141L363.554 158.978L363.775 158.816C363.812 158.789 363.849 158.762 363.887 158.735L364.114 158.575L364.344 158.416L364.578 158.258L364.813 158.103L365.167 157.875L365.403 157.726L365.754 157.509L366.214 157.232L366.658 156.972L367.18 156.674L367.563 156.461L368.278 156.075L368.841 155.782L368.916 156.304L368.976 156.762L369.044 157.332L369.092 157.764L369.139 158.23L369.173 158.598L369.215 159.108L369.244 159.503L369.268 159.905L369.288 160.311L369.299 160.583L369.307 160.855L369.313 161.126L369.316 161.396L369.315 161.664C369.315 161.708 369.314 161.753 369.314 161.797L369.308 162.059C369.305 162.19 369.3 162.319 369.293 162.446L369.278 162.697C369.275 162.738 369.272 162.779 369.269 162.82L369.247 163.061C369.24 163.141 369.231 163.219 369.222 163.296L369.191 163.522C369.114 164.04 368.996 164.486 368.826 164.817C367.732 166.941 365.205 167.818 363.181 166.776Z" fill="#9A4E34"/><path fill-rule="evenodd" clip-rule="evenodd" d="M384.535 187.55C386.77 185.394 386.834 181.834 384.678 179.599C380.556 175.325 373.749 175.203 369.476 179.325C367.241 181.481 367.176 185.041 369.332 187.276C370.925 188.927 373.285 189.394 375.31 188.655C376.324 188.285 377.512 188.306 378.512 188.712C380.509 189.524 382.884 189.143 384.535 187.55Z" fill="#A52020"/><path d="M343.312 151.353C340.897 153.354 341.846 157.262 343.969 159.961C346.497 163.175 349.835 164.977 353.243 164.948C356.677 164.918 359.105 163.387 359.702 161.14C360.257 159.056 359.327 156.056 354.904 154.156L353.676 153.584C353.054 153.333 352.469 153.002 351.933 152.6L350.592 151.666C348.07 150.14 345.42 149.607 343.312 151.353Z" fill="#3D3D3D"/><circle r="3.83184" transform="matrix(-0.147807 0.989016 0.989016 0.147807 350.337 150.885)" fill="white"/><path d="M375.546 151.936C373.131 153.936 374.08 157.845 376.203 160.544C378.73 163.758 382.068 165.56 385.477 165.531C388.911 165.501 391.338 163.97 391.936 161.723C392.491 159.639 391.561 156.639 387.138 154.739L385.91 154.167C385.288 153.916 384.702 153.585 384.167 153.183L382.826 152.249C380.303 150.723 377.653 150.19 375.546 151.936Z" fill="#3D3D3D"/><circle r="3.83184" transform="matrix(-0.147807 0.989016 0.989016 0.147807 382.571 151.468)" fill="white"/><path fill-rule="evenodd" clip-rule="evenodd" d="M339.61 242.746C336.947 240.043 336.979 235.693 339.683 233.029L368.406 203.924C371.109 201.261 375.46 201.294 378.123 203.997C380.786 206.7 380.753 211.051 378.05 213.714L349.327 242.819C346.623 245.482 342.273 245.449 339.61 242.746Z" fill="#1CB0F6"/><path d="M350.029 219.985L349.586 206.407C349.462 202.614 346.287 199.64 342.494 199.764C338.701 199.888 335.727 203.063 335.851 206.856L336.295 220.434L350.029 219.985Z" fill="#E18E70"/><path d="M350.041 219.982L349.573 206.405C349.442 202.612 346.261 199.644 342.469 199.775C338.676 199.905 335.708 203.086 335.839 206.878L336.307 220.456L350.041 219.982Z" fill="#E18E70"/><path fill-rule="evenodd" clip-rule="evenodd" d="M343.853 240.04C340.061 240.171 336.88 237.203 336.75 233.41L336.147 215.931L349.881 215.457L350.483 232.937C350.614 236.729 347.646 239.91 343.853 240.04Z" fill="#1CB0F6"/><path d="M338.167 201.562C335.165 204.528 335.136 209.366 338.103 212.368C341.069 215.37 345.907 215.399 348.909 212.432C351.911 209.466 351.939 204.628 348.973 201.626C346.007 198.624 341.169 198.595 338.167 201.562Z" fill="#E18E70"/><path fill-rule="evenodd" clip-rule="evenodd" d="M349.602 190.064C350.054 191.561 349.206 193.141 347.709 193.593C344.691 194.503 343.464 195.828 342.804 197.52C342.017 199.537 341.897 202.409 342.091 206.763C342.161 208.326 340.951 209.649 339.388 209.718C337.826 209.788 336.503 208.577 336.433 207.015C336.243 202.758 336.249 198.739 337.528 195.461C338.934 191.858 341.713 189.485 346.073 188.17C347.57 187.718 349.15 188.566 349.602 190.064Z" fill="#E18E70" stroke="#E18E70" stroke-width="1.24927" stroke-linecap="round" stroke-linejoin="round"/><path fill-rule="evenodd" clip-rule="evenodd" d="M354.386 196.839C354.534 198.396 353.391 199.778 351.834 199.925C348.222 200.268 346.924 201.096 346.363 201.807C345.751 202.581 345.368 203.994 345.511 207.113C345.582 208.675 344.373 209.999 342.811 210.071C341.248 210.142 339.924 208.933 339.853 207.371C339.703 204.103 339.931 200.811 341.919 198.296C343.956 195.717 347.247 194.671 351.3 194.287C352.857 194.139 354.239 195.282 354.386 196.839Z" fill="#E18E70" stroke="#E18E70" stroke-width="1.24927" stroke-linecap="round" stroke-linejoin="round"/><path fill-rule="evenodd" clip-rule="evenodd" d="M355.248 204.258C355.267 205.822 354.014 207.105 352.45 207.124C352.31 207.126 352.174 207.128 352.04 207.129C350.276 207.15 350.287 207.165 349.332 207.249C348.603 207.312 348.262 207.404 348.127 207.451C348.108 207.5 348.084 207.573 348.057 207.68C347.914 208.237 347.822 209.145 347.763 210.755C347.705 212.318 346.392 213.539 344.829 213.481C343.266 213.424 342.045 212.11 342.103 210.547C342.161 208.964 342.258 207.491 342.571 206.271C342.912 204.942 343.581 203.637 344.95 202.742C346.159 201.95 347.582 201.716 348.839 201.606C350.019 201.503 350.228 201.486 351.887 201.467C352.05 201.465 352.215 201.463 352.382 201.461C353.945 201.442 355.229 202.694 355.248 204.258ZM348.164 207.369C348.164 207.369 348.161 207.375 348.155 207.384C348.161 207.373 348.164 207.369 348.164 207.369Z" fill="#E18E70" stroke="#E18E70" stroke-width="1.24927" stroke-linecap="round" stroke-linejoin="round"/><path d="M180.949 75.1988C168.328 65.0803 149.813 67.5538 140.29 80.6305L90.2944 149.288C81.0715 161.953 83.8685 179.698 96.5402 188.913L164.21 238.12C177.671 247.908 196.627 244.053 205.195 229.786L247.231 159.791C254.534 147.63 251.727 131.942 240.659 123.069L180.949 75.1988Z" fill="#3D3D3D"/><rect x="212.575" y="211.676" width="25.9944" height="25.9944" fill="#3D3D3D"/><path d="M235.037 104.311C232.783 88.6315 218.121 77.8395 202.481 80.3474L123.859 92.9544C108.426 95.4292 97.9055 109.927 100.339 125.367L113.446 208.519C115.884 223.988 130.401 234.552 145.87 232.114L184.443 226.034L201.089 223.41L217.735 220.786L223.394 219.894C238.715 217.479 249.253 203.202 247.046 187.85L235.037 104.311Z" fill="#3D3D3D"/><path d="M202.157 112.269C213.461 110.488 224.07 118.207 225.852 129.512L229.781 154.438C229.823 154.709 229.861 154.981 229.893 155.252L147.706 168.738C147.609 168.302 147.524 167.861 147.454 167.414L143.525 142.488C141.743 131.184 149.463 120.575 160.767 118.793L202.157 112.269Z" fill="#FFAE00"/><rect width="77.289" height="76.0683" rx="20.7213" transform="matrix(-0.987804 0.1557 0.1557 0.987804 224.209 119.093)" fill="#A56644"/><path fill-rule="evenodd" clip-rule="evenodd" d="M176.113 140.394C183.614 139.212 190.653 144.334 191.836 151.835L192.53 156.241C193.712 163.742 188.59 170.781 181.089 171.964C173.588 173.146 166.548 168.023 165.366 160.522L164.671 156.117C163.489 148.616 168.612 141.577 176.113 140.394Z" fill="white"/><path fill-rule="evenodd" clip-rule="evenodd" d="M209.185 135.181C201.683 136.363 196.561 143.403 197.743 150.904L198.438 155.309C199.62 162.81 206.659 167.933 214.161 166.75C221.662 165.568 226.784 158.529 225.602 151.027L224.908 146.622C223.725 139.121 216.686 133.999 209.185 135.181Z" fill="white"/><path d="M157.071 167.807C157.002 171.53 153.928 174.492 150.205 174.423C146.482 174.354 143.52 171.28 143.589 167.557C143.658 163.834 146.732 160.872 150.455 160.941C154.178 161.01 157.14 164.084 157.071 167.807Z" fill="#A56644"/><path d="M206.291 115.999C207.364 115.817 208.043 114.772 207.773 113.717C206.749 109.729 204.284 106.099 200.559 103.68C196.833 101.261 192.515 100.486 188.455 101.173C187.382 101.355 186.703 102.4 186.974 103.455C187.997 107.443 190.462 111.073 194.188 113.492C197.913 115.911 202.232 116.686 206.291 115.999Z" fill="#FFAE00"/><path d="M189.427 155.909C192.066 157.499 191.714 161.435 190.047 164.368C188.061 167.86 185.081 170.1 181.765 170.569C178.424 171.043 175.842 169.91 174.932 167.814C174.089 165.87 174.553 162.82 178.573 160.327L179.683 159.591C180.25 159.257 180.771 158.85 181.233 158.38L182.399 157.277C184.627 155.425 187.124 154.52 189.427 155.909Z" fill="#3D3D3D"/><path d="M222.019 150.552C224.658 152.142 224.307 156.079 222.639 159.011C220.653 162.504 217.673 164.743 214.357 165.213C211.017 165.686 208.434 164.553 207.524 162.458C206.681 160.514 207.146 157.463 211.165 154.97L212.275 154.235C212.842 153.9 213.363 153.493 213.825 153.023L214.991 151.92C217.219 150.069 219.716 149.164 222.019 150.552Z" fill="#3D3D3D"/><circle cx="182.533" cy="156.48" r="3.76498" transform="rotate(72.9431 182.533 156.48)" fill="white"/><circle cx="215.124" cy="151.124" r="3.76498" transform="rotate(72.9431 215.124 151.124)" fill="white"/><path fill-rule="evenodd" clip-rule="evenodd" d="M205.123 171.046C207.122 169.629 207.618 166.894 206.23 164.936C205.88 164.441 205.177 163.939 204.322 163.466L204.096 163.343C204.058 163.322 204.019 163.302 203.981 163.282L203.746 163.161C203.706 163.141 203.666 163.121 203.626 163.101L203.384 162.983L203.014 162.809L202.764 162.696L202.512 162.585L202.133 162.422L201.881 162.317L201.504 162.164L201.255 162.066L200.888 161.925L200.531 161.79L200.073 161.623L199.748 161.507L199.065 161.272L198.45 161.07L197.943 160.911L197.924 161.464L197.911 162.089L197.908 162.468L197.907 162.995L197.911 163.451L197.917 163.81L197.926 164.181L197.944 164.689L197.963 165.078L197.977 165.34L198.003 165.734L198.023 165.997L198.046 166.259C198.05 166.303 198.054 166.346 198.058 166.39L198.084 166.649L198.113 166.907C198.118 166.949 198.124 166.992 198.129 167.034L198.162 167.287C198.174 167.37 198.186 167.453 198.198 167.535L198.238 167.778L198.28 168.016C198.287 168.055 198.295 168.094 198.303 168.133L198.35 168.361C198.506 169.072 198.714 169.673 198.992 170.065C200.379 172.023 203.124 172.462 205.123 171.046Z" fill="#80411F"/><path d="M202.919 192.526C195.387 198.612 184.334 197.45 178.246 189.919C173.703 184.301 178.475 176.041 185.613 177.167L192.069 178.186L198.328 178.476C205.591 178.812 208.574 187.957 202.919 192.526Z" fill="#A52020"/><path fill-rule="evenodd" clip-rule="evenodd" d="M192.659 196.41C187.289 196.643 181.882 194.417 178.245 189.92C177.949 189.553 177.692 189.176 177.473 188.79C178.59 188.074 179.869 187.573 181.263 187.354C186.654 186.504 191.713 190.185 192.563 195.576C192.607 195.855 192.639 196.134 192.659 196.41Z" fill="#E64340"/><path d="M205.405 114.89C205.946 115.835 207.162 116.111 208.057 115.492C211.446 113.154 214.001 109.587 214.984 105.255C215.967 100.923 215.202 96.6025 213.155 93.0305C212.613 92.0862 211.398 91.8104 210.502 92.4285C207.113 94.7669 204.558 98.3343 203.575 102.666C202.592 106.998 203.357 111.318 205.405 114.89Z" fill="#FFAE00"/><path fill-rule="evenodd" clip-rule="evenodd" d="M193.184 267.752C193.553 270.222 195.76 271.992 198.25 271.816L235.785 269.165C239.124 268.929 241.194 265.422 239.786 262.385L211.691 201.757C210.127 198.777 207.016 198.433 203.765 199.304L190.089 202.969C186.699 203.877 184.149 205.943 184.476 209.438L193.184 267.752Z" fill="#FFAE00"/><path fill-rule="evenodd" clip-rule="evenodd" d="M213.325 197.626L182.372 202.393C180.05 202.751 178.458 204.923 178.816 207.244L180.169 216.033C180.527 218.355 182.699 219.947 185.02 219.59L215.973 214.822C218.295 214.465 219.887 212.293 219.529 209.972L218.176 201.182C217.818 198.861 215.646 197.269 213.325 197.626Z" fill="#FFAE00"/><path d="M186.376 222.185L218.838 217.185L217.484 214.264L185.919 219.125L186.376 222.185Z" fill="#F19600"/><path d="M221.685 263.229L122.11 240.055L109.999 328.554C109.28 333.806 113.363 338.485 118.663 338.485H124.131L130.632 321.473L137.133 338.485H212.941C217.77 338.485 221.685 334.57 221.685 329.74V263.229Z" fill="#8B5AE0"/><path d="M151.688 363.042C148.273 359.628 148.652 353.986 152.492 351.059L163.113 342.963C166.954 340.035 172.368 340.399 175.782 343.814C177.592 345.623 178.608 348.076 178.608 350.635V352.128C178.608 359.446 172.675 365.378 165.357 365.378L157.328 365.378C155.212 365.378 153.184 364.538 151.688 363.042Z" fill="#593F86"/><path d="M174.573 309.312C178.25 305.584 184.356 305.901 187.627 309.989L217.331 347.11C223.221 354.472 217.98 365.378 208.552 365.378H164.735L164.735 322.873C164.735 320.575 165.64 318.369 167.254 316.732L174.573 309.312Z" fill="#A570FF"/><path d="M173.252 288.883C177.673 286.267 183.386 288.008 185.597 292.645L194.86 312.068C198.419 319.529 192.978 328.151 184.712 328.151H164.735L164.735 298.908C164.735 295.816 166.367 292.955 169.028 291.381L173.252 288.883Z" fill="#593F86"/><path fill-rule="evenodd" clip-rule="evenodd" d="M193.222 283.163C197.131 281.348 201.77 283.046 203.585 286.954L211.749 304.539C213.563 308.448 211.866 313.087 207.957 314.902C204.049 316.716 199.409 315.019 197.595 311.11L189.431 293.525C187.616 289.617 189.314 284.977 193.222 283.163Z" fill="#593F86"/><path fill-rule="evenodd" clip-rule="evenodd" d="M177.025 310.841C176.573 306.555 179.681 302.715 183.967 302.263L203.247 300.232C207.533 299.78 211.373 302.888 211.825 307.174C212.276 311.459 209.168 315.299 204.883 315.751L185.602 317.782C181.317 318.234 177.476 315.126 177.025 310.841Z" fill="#593F86"/><path d="M205.207 295.339C201.147 295.5 197.824 298.334 196.867 302.079C196.512 303.471 197.76 304.612 199.195 304.555L211.927 304.052C213.362 303.996 214.516 302.761 214.052 301.401C212.803 297.743 209.267 295.179 205.207 295.339Z" fill="#FFC6B7"/><path fill-rule="evenodd" clip-rule="evenodd" d="M135.805 245.27L207.28 254.466C210.914 254.945 213.471 258.28 212.992 261.914C212.513 265.548 209.178 268.106 205.544 267.627L134.07 258.431C130.435 257.952 127.878 254.617 128.357 250.983C128.836 247.349 132.171 244.791 135.805 245.27Z" fill="#FFC6B7"/><path fill-rule="evenodd" clip-rule="evenodd" d="M186.581 207.354C206.422 209.971 221.315 226.785 221.517 246.796L221.865 281.21C221.961 290.669 214.37 298.415 204.911 298.51C204.105 298.518 203.298 298.47 202.499 298.364L147.614 291.126C138.235 289.889 131.635 281.284 132.872 271.905C132.978 271.106 133.139 270.314 133.356 269.537L142.614 236.391C147.997 217.116 166.741 204.738 186.581 207.354Z" fill="#FFC6B7"/><path fill-rule="evenodd" clip-rule="evenodd" d="M186.579 207.354C206.419 209.97 221.313 226.784 221.515 246.796L221.59 254.265L192.748 250.462C176.876 248.368 165.707 233.805 167.8 217.933L168.984 208.945C174.51 207.159 180.493 206.551 186.579 207.354Z" fill="#A570FF"/><path fill-rule="evenodd" clip-rule="evenodd" d="M150.968 204.952L170.449 202.123C192.224 198.962 212.949 212.363 219.05 233.432L219.23 234.073C218.61 234.418 217.962 234.758 217.285 235.093L216.771 235.343C216.339 235.55 215.896 235.756 215.442 235.96L214.891 236.203C213.594 236.769 212.209 237.32 210.737 237.855L210.101 238.083C209.673 238.235 209.238 238.385 208.796 238.535L208.128 238.757L207.449 238.978L206.759 239.197C206.644 239.233 206.527 239.27 206.411 239.306L205.705 239.522L204.988 239.736L204.261 239.948L203.524 240.159L202.775 240.367C202.524 240.437 202.271 240.506 202.016 240.574L201.246 240.779L200.465 240.982L199.674 241.183C199.541 241.216 199.408 241.249 199.275 241.283L198.467 241.481L197.649 241.677C197.512 241.71 197.374 241.742 197.236 241.775L196.402 241.968L195.557 242.16L194.702 242.349L193.836 242.537C193.691 242.568 193.545 242.599 193.399 242.63L192.517 242.815L191.624 242.998L190.72 243.179L189.806 243.359L188.881 243.536C188.726 243.566 188.57 243.595 188.414 243.624L187.474 243.799C187.316 243.828 187.158 243.856 186.999 243.885L186.042 244.057L185.074 244.227L184.096 244.395L183.107 244.561L181.515 244.822L179.638 245.125L176.892 245.559L174.848 245.878L173.162 246.137L170.55 246.533L167.838 246.939L165.026 247.355L161.618 247.851L159.609 248.14L155.458 248.731L151.129 249.338L146.046 250.041L141.936 250.602L135.202 251.509L132.67 251.847C125.101 252.854 118.148 247.533 117.141 239.964C116.756 237.066 117.299 234.121 118.692 231.551L122.254 224.981C128.128 214.147 138.772 206.722 150.968 204.952Z" fill="#593F86"/><path d="M175.094 203.137C174.271 205.929 171.34 207.526 168.548 206.703C165.755 205.88 164.159 202.949 164.982 200.157C165.805 197.365 168.735 195.768 171.528 196.591C174.32 197.414 175.916 200.345 175.094 203.137Z" fill="#593F86"/><path fill-rule="evenodd" clip-rule="evenodd" d="M190.115 279.174C189.544 279.949 188.452 280.115 187.677 279.544C185.174 277.702 182 277.338 177.833 278.883C176.93 279.217 175.927 278.756 175.592 277.853C175.258 276.95 175.718 275.947 176.621 275.613C181.564 273.781 186.046 274.013 189.744 276.736C190.52 277.307 190.686 278.398 190.115 279.174Z" fill="#EE9583"/><path d="M156.21 251.846C155.417 259.559 160.946 266.519 168.676 267.46C176.417 268.402 183.462 262.957 184.529 255.263L156.21 251.846Z" fill="white"/><path d="M189.746 255.893C188.932 263.62 194.467 270.6 202.209 271.543C209.961 272.486 217.017 267.023 218.066 259.31L189.746 255.893Z" fill="white"/><path d="M173.457 257.242C174.098 258.075 175.138 258.572 176.261 258.47C178.007 258.313 179.294 256.769 179.136 255.024C179.135 255.01 179.134 254.995 179.132 254.981C180.089 254.997 180.986 255.313 181.762 256.035C183.662 257.806 182.689 260.991 180.804 263.121C178.559 265.657 175.712 266.986 172.895 266.798C170.058 266.608 168.124 265.225 167.738 263.338C167.38 261.588 168.293 259.152 172.042 257.794L173.085 257.381C173.211 257.338 173.335 257.292 173.457 257.242Z" fill="#3D3D3D"/><path d="M206.273 261.137C206.978 262.054 208.123 262.602 209.36 262.49C211.283 262.316 212.7 260.617 212.526 258.694C212.525 258.679 212.523 258.663 212.522 258.647C213.575 258.664 214.564 259.013 215.418 259.808C217.51 261.758 216.438 265.266 214.363 267.611C211.891 270.403 208.756 271.868 205.654 271.66C202.529 271.451 200.399 269.928 199.974 267.85C199.58 265.923 200.586 263.241 204.714 261.745L205.862 261.29C206.001 261.243 206.138 261.192 206.273 261.137Z" fill="#3D3D3D"/><path fill-rule="evenodd" clip-rule="evenodd" d="M191.784 272.506C194.153 271.497 195.253 268.752 194.241 266.374C193.996 265.799 193.42 265.141 192.687 264.474L192.483 264.291C192.448 264.261 192.414 264.231 192.379 264.2L192.165 264.018L191.945 263.836L191.72 263.655L191.491 263.475L191.259 263.296L191.024 263.119L190.787 262.944L190.549 262.772L190.31 262.602L189.954 262.353L189.485 262.033L189.142 261.804L188.7 261.516L188.281 261.249L187.894 261.006L187.307 260.646L186.918 260.414L186.545 260.197L186.437 260.642L186.338 261.071L186.196 261.715L186.083 262.254L185.943 262.972L185.872 263.354L185.802 263.748L185.735 264.151L185.67 264.563L185.609 264.979L185.553 265.399L185.519 265.678L185.487 265.958L185.458 266.236L185.433 266.512L185.411 266.786C185.408 266.831 185.405 266.876 185.402 266.921L185.386 267.19L185.374 267.454C185.369 267.585 185.366 267.714 185.365 267.84L185.365 268.09C185.366 268.131 185.366 268.172 185.367 268.213L185.375 268.452C185.404 269.081 185.492 269.625 185.662 270.025C186.674 272.404 189.416 273.514 191.784 272.506Z" fill="#EE9583"/><path fill-rule="evenodd" clip-rule="evenodd" d="M157.216 291.318C161.125 289.503 165.764 291.201 167.579 295.109L175.742 312.694C177.557 316.603 175.859 321.242 171.951 323.057C168.042 324.871 163.403 323.174 161.588 319.265L153.425 301.68C151.61 297.772 153.308 293.132 157.216 291.318Z" fill="#593F86"/><path d="M169.531 298.145C165.643 299.327 163.145 302.91 163.166 306.775C163.174 308.212 164.671 308.999 166.045 308.582L178.235 304.876C179.609 304.458 180.414 302.971 179.621 301.773C177.488 298.55 173.418 296.964 169.531 298.145Z" fill="#FFC6B7"/><path fill-rule="evenodd" clip-rule="evenodd" d="M367.964 311.769H361.169C359.757 311.769 358.512 312.697 358.11 314.052L348.037 347.962C347.535 349.652 348.498 351.429 350.188 351.931C350.483 352.018 350.789 352.063 351.097 352.063H367.964C369.726 352.063 371.155 350.634 371.155 348.871V314.96C371.155 313.198 369.726 311.769 367.964 311.769Z" fill="#2FE3FF"/><path d="M346.001 244.47C346.001 226.531 360.543 211.989 378.482 211.989H428.827C443.279 211.989 455.992 221.536 460.02 235.415L481.808 310.472C489.696 337.645 469.311 364.788 441.017 364.788H357.245C351.035 364.788 346.001 359.754 346.001 353.545V244.47Z" fill="#A56644"/><path fill-rule="evenodd" clip-rule="evenodd" d="M435.904 361.389L436.246 361.604C439.547 363.689 443.913 362.702 445.997 359.4L456.564 342.663C458.648 339.361 457.661 334.996 454.36 332.911L454.018 332.696C450.717 330.612 446.351 331.598 444.267 334.9L433.7 351.637C431.616 354.939 432.603 359.305 435.904 361.389Z" fill="#A56644" stroke="#944D27" stroke-width="3.7478"/><path d="M422.133 356.748L420.501 355.828L420.514 355.805L420.527 355.783L422.133 356.748ZM423.655 350.387L421.786 350.53L421.785 350.517L421.784 350.504L423.655 350.387ZM411.078 362.75L411.077 360.876H411.078V362.75ZM411.051 362.75L411.053 364.624L411.049 364.624L411.051 362.75ZM411.024 362.75V360.876L411.025 360.876L411.024 362.75ZM386.156 345.055L387.605 346.244L387.605 346.244L386.156 345.055ZM398.247 329.888L400.075 330.298V330.298L398.247 329.888ZM396.628 328.541C396.854 327.531 397.857 326.896 398.867 327.123C399.876 327.349 400.511 328.351 400.285 329.361L396.628 328.541ZM420.263 326.037C420.199 325.004 420.984 324.114 422.017 324.05C423.05 323.986 423.939 324.771 424.004 325.804L420.263 326.037ZM420.527 355.783C421.463 354.225 421.931 352.426 421.786 350.53L425.523 350.244C425.731 352.956 425.054 355.525 423.74 357.713L420.527 355.783ZM411.374 360.876C415.417 360.876 418.84 358.775 420.501 355.828L423.766 357.668C421.409 361.85 416.704 364.624 411.374 364.624V360.876ZM411.078 360.876H411.374V364.624H411.078V360.876ZM411.049 360.876L411.077 360.876L411.08 364.624L411.053 364.624L411.049 360.876ZM411.025 360.876L411.053 360.876L411.049 364.624L411.022 364.624L411.025 360.876ZM395.839 360.876H411.024V364.624H395.839V360.876ZM385.617 351.686C385.617 356.608 390.033 360.876 395.839 360.876V364.624C388.285 364.624 381.869 358.986 381.869 351.686H385.617ZM387.605 346.244C386.344 347.781 385.617 349.663 385.617 351.686H381.869C381.869 348.735 382.937 346.026 384.706 343.867L387.605 346.244ZM396.418 329.478L396.628 328.541L400.285 329.361L400.075 330.298L396.418 329.478ZM421.784 350.504L420.263 326.037L424.004 325.804L425.525 350.271L421.784 350.504ZM384.706 343.867C385.8 342.534 387.044 341.293 388.27 340.117C389.523 338.916 390.722 337.814 391.864 336.649C394.142 334.323 395.833 332.087 396.418 329.478L400.075 330.298C399.253 333.964 396.938 336.825 394.541 339.271C393.346 340.492 392.041 341.694 390.864 342.822C389.661 343.976 388.55 345.091 387.605 346.244L384.706 343.867Z" fill="#944D27"/><path fill-rule="evenodd" clip-rule="evenodd" d="M408.501 178.943C404.107 177.753 399.58 180.349 398.39 184.743L397.018 189.805C395.828 194.199 398.425 198.725 402.818 199.916C407.212 201.106 411.738 198.509 412.929 194.116L414.3 189.054C415.491 184.66 412.894 180.133 408.501 178.943Z" fill="#A56644"/><path fill-rule="evenodd" clip-rule="evenodd" d="M435.167 191.454C438.134 194.906 437.741 200.11 434.289 203.077L430.311 206.495C426.859 209.462 421.656 209.069 418.689 205.617C415.722 202.165 416.115 196.961 419.567 193.994L423.544 190.576C426.996 187.609 432.2 188.002 435.167 191.454Z" fill="#A56644"/><path fill-rule="evenodd" clip-rule="evenodd" d="M370.811 227.644C363.18 227.034 356.499 232.727 355.889 240.358L355.532 244.839C354.922 252.47 360.614 259.151 368.245 259.76C375.876 260.37 382.557 254.678 383.166 247.047L383.524 242.565C384.134 234.934 378.442 228.254 370.811 227.644Z" fill="white"/><path fill-rule="evenodd" clip-rule="evenodd" d="M404.197 230.378C396.566 229.768 389.886 235.46 389.276 243.091L388.918 247.573C388.309 255.204 394.001 261.884 401.632 262.494C409.263 263.103 415.944 257.411 416.553 249.78L416.911 245.299C417.521 237.668 411.829 230.987 404.197 230.378Z" fill="white"/><path d="M358.453 242.987C355.456 244.334 355.325 248.546 356.716 251.863C358.373 255.814 361.242 258.566 364.692 259.486C368.168 260.414 371.047 259.545 372.277 257.442C373.419 255.492 373.316 252.203 369.379 249.05L368.298 248.13C367.74 247.704 367.241 247.206 366.812 246.65L365.718 245.333C363.596 243.089 361.068 241.812 358.453 242.987Z" fill="#3D3D3D"/><path d="M391.879 245.458C388.883 246.804 388.752 251.016 390.143 254.334C391.8 258.285 394.668 261.036 398.119 261.957C401.595 262.884 404.474 262.015 405.704 259.912C406.845 257.962 406.743 254.673 402.806 251.521L401.724 250.601C401.167 250.174 400.667 249.676 400.239 249.12L399.145 247.804C397.023 245.559 394.495 244.282 391.879 245.458Z" fill="#3D3D3D"/><circle r="4.01472" transform="matrix(-0.405693 0.91401 0.91401 0.405693 365.678 244.473)" fill="white"/><circle r="4.01472" transform="matrix(-0.405693 0.91401 0.91401 0.405693 399.105 246.943)" fill="white"/><path fill-rule="evenodd" clip-rule="evenodd" d="M384.515 248.523C392.84 250.019 398.375 257.981 396.878 266.306C396.772 266.899 396.568 268.797 396.734 271.048C396.908 273.385 397.391 274.861 397.736 275.484C401.83 282.886 399.149 292.205 391.747 296.299C384.346 300.393 375.027 297.711 370.933 290.31C367.656 284.385 366.541 278.063 366.189 273.313C365.83 268.477 366.173 263.998 366.732 260.886C368.229 252.561 376.19 247.026 384.515 248.523Z" fill="#E5A259"/><path d="M373.709 258.122C374.466 260.918 377.346 262.572 380.142 261.815C382.938 261.059 384.592 258.179 383.835 255.383C383.079 252.587 380.199 250.933 377.403 251.69C374.607 252.446 372.953 255.326 373.709 258.122Z" fill="#3D3D3D"/><path d="M392.014 267.935C391.343 264.87 387.94 263.282 385.159 264.738L383.654 265.525C382.694 266.028 381.617 266.264 380.535 266.208L378.838 266.121C375.704 265.959 373.275 268.823 373.946 271.889L374.512 274.475C375.603 279.464 380.533 282.624 385.523 281.532L-nan -nanL385.523 281.532C390.512 280.44 393.671 275.51 392.58 270.521L392.014 267.935Z" fill="#A52020"/><path d="M378.121 279.979C380.181 281.468 382.842 282.108 385.521 281.521C390.51 280.43 393.67 275.5 392.578 270.511L392.502 270.166C392.34 270.117 392.175 270.075 392.007 270.04C385.728 268.718 379.567 272.736 378.246 279.014C378.178 279.337 378.137 279.659 378.121 279.979Z" fill="#E63F3F"/><path d="M346.003 293.625V316.896L374.178 328.151L477.776 296.574L469.713 268.796L373.889 313.453L346.003 293.625Z" fill="#2FE3FF"/><path fill-rule="evenodd" clip-rule="evenodd" d="M346.2 349.53V231.457C346.2 217.085 331.74 207.216 318.357 212.453L300.539 219.425C289.57 223.717 277.387 223.717 266.419 219.425L248.601 212.453C235.217 207.216 220.758 217.085 220.758 231.457V349.53C220.758 360.8 229.894 369.937 241.164 369.937H325.793C337.064 369.937 346.2 360.8 346.2 349.53Z" fill="#58CC02"/><path d="M255.944 221.15L272.293 238.911C278.602 244.106 288.488 243.929 295.109 238.38C295.699 237.737 296.325 237.128 296.985 236.556L310.903 221.15C311.768 220.176 313.391 220.284 314.04 221.474C315.781 224.452 316.414 227.837 315.985 231.116L320.856 225.694C321.829 224.72 323.452 224.828 323.993 226.126C325.653 228.965 326.306 232.175 325.991 235.309C331.737 239.465 335.461 246.228 335.461 253.822V265.938C335.461 278.596 325.183 288.765 312.634 288.765H312.093C302.799 288.765 294.811 283.189 291.248 275.198C289.373 275.189 286.729 275.194 283.315 275.242H275.823C272.253 283.229 264.23 288.765 254.971 288.765H254.322C241.664 288.765 231.495 278.488 231.495 265.938V253.93C231.495 246.225 235.263 239.402 241.066 235.242C240.767 232.129 241.422 228.945 243.071 226.126C243.72 224.828 245.342 224.72 246.316 225.694L251.179 231.141C250.729 227.854 251.334 224.459 253.023 221.474C253.781 220.284 254.971 220.176 255.944 221.15Z" fill="#89E219"/><path fill-rule="evenodd" clip-rule="evenodd" d="M283.533 263.905C288.266 263.905 292.19 267.83 292.19 272.562V288.41C292.19 293.142 288.266 297.067 283.533 297.067C278.801 297.067 274.877 293.142 274.877 288.41V272.562C274.877 267.83 278.801 263.905 283.533 263.905Z" fill="#F49000"/><path fill-rule="evenodd" clip-rule="evenodd" d="M283.534 267.08C287.36 267.08 290.533 270.253 290.533 274.079V283.474C290.533 287.301 287.36 290.474 283.534 290.474C279.708 290.474 276.535 287.301 276.535 283.474V274.079C276.535 270.253 279.708 267.08 283.534 267.08Z" fill="#B06800"/><path d="M271.645 273.139C272.684 267.83 277.763 263.905 283.765 263.905C289.42 263.905 294.384 267.945 295.422 273.139V273.601C295.422 273.947 295.307 274.178 294.961 274.063L283.765 276.025C283.534 276.025 283.534 276.025 283.303 276.025L272.107 274.063C271.761 274.063 271.645 273.947 271.645 273.601V273.139Z" fill="#FFC200"/><path d="M286.188 269.561C285.958 269.561 285.842 269.561 285.611 269.446C284.111 268.868 282.726 268.868 281.456 269.446C280.533 269.792 279.609 269.33 279.263 268.522C278.917 267.599 279.379 266.675 280.187 266.329C282.264 265.521 284.457 265.521 286.766 266.329C287.689 266.675 288.151 267.599 287.804 268.522C287.574 269.099 286.881 269.561 286.188 269.561Z" fill="#FFDE00"/><path fill-rule="evenodd" clip-rule="evenodd" d="M255.511 239.217C264.274 239.217 271.414 246.357 271.414 255.12V264.749C271.414 273.511 264.274 280.652 255.511 280.652C246.748 280.652 239.608 273.511 239.608 264.749V255.12C239.608 246.357 246.748 239.217 255.511 239.217Z" fill="white"/><path fill-rule="evenodd" clip-rule="evenodd" d="M311.444 239.217C302.681 239.217 295.541 246.357 295.541 255.12V264.749C295.541 273.511 302.681 280.652 311.444 280.652C320.207 280.652 327.347 273.511 327.347 264.749V255.12C327.347 246.357 320.207 239.217 311.444 239.217Z" fill="white"/><path d="M290.528 283.733C290.389 287.443 287.273 290.473 283.534 290.473C279.794 290.473 276.679 287.443 276.539 283.733C278.241 281.753 280.757 280.486 283.534 280.486C286.31 280.486 288.826 281.753 290.528 283.733Z" fill="#FFB8D1"/><path fill-rule="evenodd" clip-rule="evenodd" d="M249.283 272.588C249.494 276.95 253.201 280.315 257.563 280.103C265.457 279.721 271.56 272.996 271.178 265.102C270.966 260.74 267.259 257.375 262.897 257.587C259.002 257.776 255.903 260.752 255.434 264.492C251.756 265.32 249.094 268.693 249.283 272.588Z" fill="#3D3D3D"/><path fill-rule="evenodd" clip-rule="evenodd" d="M317.603 272.588C317.392 276.95 313.684 280.315 309.322 280.103C301.428 279.721 295.325 272.996 295.708 265.102C295.919 260.74 299.627 257.375 303.988 257.587C307.883 257.776 310.983 260.752 311.452 264.492C315.129 265.32 317.792 268.693 317.603 272.588Z" fill="#3D3D3D"/><path d="M236.528 274.061C236.242 272.464 237.713 271.112 239.279 271.532L267.427 279.074C269.179 279.543 269.653 281.804 268.239 282.938L264.963 285.564C263.252 286.936 260.994 287.417 258.873 286.862L239.207 281.717C238.373 281.499 237.742 280.816 237.589 279.967L236.528 274.061Z" fill="#89E219"/><path d="M330.134 274.061C330.421 272.464 328.95 271.112 327.384 271.532L299.236 279.074C297.484 279.543 297.009 281.804 298.424 282.938L301.7 285.564C303.41 286.936 305.669 287.417 307.79 286.862L327.456 281.717C328.29 281.499 328.921 280.816 329.074 279.967L330.134 274.061Z" fill="#89E219"/><path d="M296.798 297.108L355.151 285.333C356.783 285.004 358.478 285.263 359.938 286.063L374.833 294.23L371.896 326.992L282.649 326.992L282.649 314.397C282.649 306.001 288.568 298.768 296.798 297.108Z" fill="#FFF7DE"/><path d="M270.75 297.108L212.397 285.333C210.765 285.004 209.07 285.263 207.61 286.063L192.715 294.23L195.652 326.992L284.899 326.992L284.899 314.397C284.899 306.001 278.98 298.768 270.75 297.108Z" fill="#FFF7DE"/><path d="M264.889 302.648L197.355 289.479C193.088 288.244 188.643 290.754 187.426 295.087C187.221 295.815 187.118 296.568 187.118 297.325L192.407 362.778C192.407 366.422 194.787 369.624 198.238 370.624L273.219 384.867L268.22 307.131C268.22 305.049 266.86 303.219 264.889 302.648Z" fill="#F75959"/><path d="M302.69 302.648L370.223 289.479C374.49 288.244 378.936 290.754 380.152 295.087C380.357 295.815 380.461 296.568 380.461 297.325L375.171 362.778C375.171 366.422 372.791 369.624 369.34 370.624L294.36 384.867L299.358 307.131C299.358 305.049 300.718 303.219 302.69 302.648Z" fill="#F75959"/><path d="M257.943 381.808L253.377 300.403L261.026 301.895L265.593 383.284L257.943 381.808Z" fill="#EF4849"/><path d="M310.468 381.861L314.203 300.403L306.553 301.895L302.819 383.337L310.468 381.861Z" fill="#EF4849"/><path d="M265.359 383.39L260.578 301.808L264.888 302.648C266.86 303.219 268.22 305.049 268.22 307.131L268.904 321.188L273.008 384.867L265.359 383.39Z" fill="#DF4142"/><path d="M302.69 383.285L307 301.808L302.69 302.648C300.718 303.219 299.359 305.049 299.359 307.131L298.674 321.188L295.041 384.762L302.69 383.285Z" fill="#DF4142"/><path d="M191.438 350.434C204.966 347.899 214.808 336.032 215.905 322.116C216.227 318.026 212.541 315.211 208.698 315.835L189.049 319.025L191.438 350.434Z" fill="#EF4849"/><path d="M376.155 350.434C362.495 347.899 352.557 336.032 351.45 322.116C351.125 318.026 354.847 315.211 358.727 315.835L378.567 319.025L376.155 350.434Z" fill="#EF4849"/><path d="M185.262 334.971C185.448 337.397 187.282 339.43 189.715 339.454C200.561 339.561 210.732 333.481 216.12 323.579C218.061 320.012 215.817 315.822 212.046 314.681L190.364 308.126C186.834 307.058 183.334 309.871 183.616 313.548L185.262 334.971Z" fill="#58CC02"/><path d="M382.398 334.971C382.212 337.397 380.377 339.429 377.944 339.453C367.098 339.561 356.928 333.48 351.54 323.579C349.599 320.012 351.842 315.821 355.614 314.681L377.295 308.125C380.825 307.058 384.326 309.871 384.043 313.548L382.398 334.971Z" fill="#58CC02"/><path d="M279.342 389.297L288.213 389.297C292.567 389.297 296.096 385.97 296.096 381.866L299.305 310.801C299.313 310.779 299.321 310.757 299.329 310.735L299.312 310.735L299.305 310.801C298.739 312.308 297.593 313.261 295.282 313.261L272.273 313.261C269.962 313.261 268.816 312.308 268.25 310.801L268.243 310.735L268.226 310.735C268.234 310.757 268.242 310.779 268.25 310.801L271.459 381.866C271.459 385.97 274.988 389.297 279.342 389.297Z" fill="#EF4849"/><path d="M210.117 355.899C215.487 353.104 222.257 355.176 225.014 360.653L225.083 360.799L233.117 376.54C235.874 382.018 233.694 388.749 228.216 391.506C222.739 394.263 216.008 392.083 213.251 386.605L205.217 370.864C202.46 365.387 204.64 358.656 210.117 355.899Z" fill="#F49000"/><path d="M357.54 355.899C352.17 353.103 345.4 355.176 342.643 360.653L342.575 360.799L334.541 376.54C331.784 382.017 333.964 388.749 339.441 391.506C344.919 394.262 351.65 392.083 354.407 386.605L362.441 370.864C365.198 365.387 363.018 358.656 357.54 355.899Z" fill="#F49000"/></g><defs><clipPath id="clip0_99_39521"><rect width="565" height="411" fill="white"/></clipPath></defs></svg>