<svg class="svg-icon" style="width: 1em; height: 1em;vertical-align: middle;fill: currentColor;overflow: hidden;" viewBox="0 0 1024 1024" version="1.1" xmlns="http://www.w3.org/2000/svg"><path d="M876.11392 62.85824l-8.13568-12.2368L166.81472 50.62144l-8.20736 10.496C-20.05504 289.20832 4.66432 428.09344 35.2768 490.62912c30.71488 62.63808 92.89216 103.18336 158.47424 103.18336l5.9136 0c82.74944-3.3024 137.7792-44.3904 166.76352-74.14272 26.17856 29.75744 75.45344 69.53984 152.59648 69.53984 80.42496 0 130.60096-43.31008 155.72992-73.37472 35.08736 28.60544 103.5776 75.48416 175.37024 75.48416 47.06816 0 87.39328-19.28704 120.23808-57.31328C1092.20864 392.10496 884.992 76.23168 876.11392 62.85824L876.11392 62.85824 876.11392 62.85824M928.2816 498.37568c-22.08256 25.84064-47.66208 38.17472-78.26944 38.17472-69.1968 0-141.07136-62.66368-157.09696-77.54752L692.9152 271.13984c0.02048-0.53248 0.29696-0.9216 0.29696-1.43872 0-15.22176-12.30848-27.53024-27.47392-27.53024-15.19104 0-27.47904 12.30848-27.47904 27.53024l-0.29696 0 0 204.28288c-15.00672 20.4544-53.03296 60.45696-118.94272 60.45696-74.40384 0-113.16224-50.87744-123.65824-67.0464L395.36128 269.696c0-15.21664-12.30336-27.52512-27.44832-27.52512-15.19104 0-27.49952 12.30848-27.49952 27.52512l0 196.69504c-13.4656 17.52064-59.81184 69.36064-142.96064 72.79616l-3.69664 0 0-0.06144c-36.67968 0-84.63872-22.49216-109.12256-72.6272-24.52992-50.01216-42.3168-163.03616 109.06624-361.10848l644.46976 0C895.37536 195.80416 1003.89888 410.64448 928.2816 498.37568L928.2816 498.37568M878.48448 624.97792c-15.24736 0-27.66336 12.3648-27.71456 27.61216l0 0.05632 0 0.10752 0 0.06656 0 199.28576c0 30.66368-24.85248 55.5008-55.43424 55.5008l-237.53216 0-0.0512 0-330.752 0c-30.58176 0-55.43936-24.83712-55.43936-55.5008l0-199.42912c-0.03072-15.30368-12.41088-27.68896-27.68896-27.68896-15.27808 0-27.66336 12.38528-27.71968 27.68896l0 204.96896c0 58.26048 47.12448 105.4464 105.28768 105.4464l579.45088 0c58.15808 0 105.28256-47.18592 105.28256-105.4464l0-205.05088C906.10688 637.33248 893.73696 624.97792 878.48448 624.97792L878.48448 624.97792 878.48448 624.97792M878.48448 624.97792 878.48448 624.97792z"  /></svg>